%TF.GenerationSoftware,KiCad,Pcbnew,9.0.5*%
%TF.CreationDate,2025-11-27T16:43:58-05:00*%
%TF.ProjectId,dual_power_supply,6475616c-5f70-46f7-9765-725f73757070,rev?*%
%TF.SameCoordinates,Original*%
%TF.FileFunction,Legend,Top*%
%TF.FilePolarity,Positive*%
%FSLAX46Y46*%
G04 Gerber Fmt 4.6, Leading zero omitted, Abs format (unit mm)*
G04 Created by KiCad (PCBNEW 9.0.5) date 2025-11-27 16:43:58*
%MOMM*%
%LPD*%
G01*
G04 APERTURE LIST*
%ADD10C,0.100000*%
%ADD11C,0.062500*%
%ADD12C,0.150000*%
%ADD13C,0.120000*%
G04 APERTURE END LIST*
D10*
X128661217Y-101541609D02*
X128780265Y-102041609D01*
X128780265Y-102041609D02*
X128875503Y-101684466D01*
X128875503Y-101684466D02*
X128970741Y-102041609D01*
X128970741Y-102041609D02*
X129089789Y-101541609D01*
X129280265Y-102041609D02*
X129280265Y-101708276D01*
X129280265Y-101541609D02*
X129256456Y-101565419D01*
X129256456Y-101565419D02*
X129280265Y-101589228D01*
X129280265Y-101589228D02*
X129304075Y-101565419D01*
X129304075Y-101565419D02*
X129280265Y-101541609D01*
X129280265Y-101541609D02*
X129280265Y-101589228D01*
X129589789Y-102041609D02*
X129542170Y-102017800D01*
X129542170Y-102017800D02*
X129518360Y-101970180D01*
X129518360Y-101970180D02*
X129518360Y-101541609D01*
X129851694Y-102041609D02*
X129804075Y-102017800D01*
X129804075Y-102017800D02*
X129780265Y-101970180D01*
X129780265Y-101970180D02*
X129780265Y-101541609D01*
X130042170Y-102041609D02*
X130042170Y-101708276D01*
X130042170Y-101541609D02*
X130018361Y-101565419D01*
X130018361Y-101565419D02*
X130042170Y-101589228D01*
X130042170Y-101589228D02*
X130065980Y-101565419D01*
X130065980Y-101565419D02*
X130042170Y-101541609D01*
X130042170Y-101541609D02*
X130042170Y-101589228D01*
X130494551Y-102041609D02*
X130494551Y-101779704D01*
X130494551Y-101779704D02*
X130470741Y-101732085D01*
X130470741Y-101732085D02*
X130423122Y-101708276D01*
X130423122Y-101708276D02*
X130327884Y-101708276D01*
X130327884Y-101708276D02*
X130280265Y-101732085D01*
X130494551Y-102017800D02*
X130446932Y-102041609D01*
X130446932Y-102041609D02*
X130327884Y-102041609D01*
X130327884Y-102041609D02*
X130280265Y-102017800D01*
X130280265Y-102017800D02*
X130256456Y-101970180D01*
X130256456Y-101970180D02*
X130256456Y-101922561D01*
X130256456Y-101922561D02*
X130280265Y-101874942D01*
X130280265Y-101874942D02*
X130327884Y-101851133D01*
X130327884Y-101851133D02*
X130446932Y-101851133D01*
X130446932Y-101851133D02*
X130494551Y-101827323D01*
X130732646Y-102041609D02*
X130732646Y-101708276D01*
X130732646Y-101755895D02*
X130756456Y-101732085D01*
X130756456Y-101732085D02*
X130804075Y-101708276D01*
X130804075Y-101708276D02*
X130875503Y-101708276D01*
X130875503Y-101708276D02*
X130923122Y-101732085D01*
X130923122Y-101732085D02*
X130946932Y-101779704D01*
X130946932Y-101779704D02*
X130946932Y-102041609D01*
X130946932Y-101779704D02*
X130970741Y-101732085D01*
X130970741Y-101732085D02*
X131018360Y-101708276D01*
X131018360Y-101708276D02*
X131089789Y-101708276D01*
X131089789Y-101708276D02*
X131137408Y-101732085D01*
X131137408Y-101732085D02*
X131161218Y-101779704D01*
X131161218Y-101779704D02*
X131161218Y-102041609D01*
X132065979Y-102041609D02*
X131899313Y-101803514D01*
X131780265Y-102041609D02*
X131780265Y-101541609D01*
X131780265Y-101541609D02*
X131970741Y-101541609D01*
X131970741Y-101541609D02*
X132018360Y-101565419D01*
X132018360Y-101565419D02*
X132042170Y-101589228D01*
X132042170Y-101589228D02*
X132065979Y-101636847D01*
X132065979Y-101636847D02*
X132065979Y-101708276D01*
X132065979Y-101708276D02*
X132042170Y-101755895D01*
X132042170Y-101755895D02*
X132018360Y-101779704D01*
X132018360Y-101779704D02*
X131970741Y-101803514D01*
X131970741Y-101803514D02*
X131780265Y-101803514D01*
X132351694Y-102041609D02*
X132304075Y-102017800D01*
X132304075Y-102017800D02*
X132280265Y-101993990D01*
X132280265Y-101993990D02*
X132256456Y-101946371D01*
X132256456Y-101946371D02*
X132256456Y-101803514D01*
X132256456Y-101803514D02*
X132280265Y-101755895D01*
X132280265Y-101755895D02*
X132304075Y-101732085D01*
X132304075Y-101732085D02*
X132351694Y-101708276D01*
X132351694Y-101708276D02*
X132423122Y-101708276D01*
X132423122Y-101708276D02*
X132470741Y-101732085D01*
X132470741Y-101732085D02*
X132494551Y-101755895D01*
X132494551Y-101755895D02*
X132518360Y-101803514D01*
X132518360Y-101803514D02*
X132518360Y-101946371D01*
X132518360Y-101946371D02*
X132494551Y-101993990D01*
X132494551Y-101993990D02*
X132470741Y-102017800D01*
X132470741Y-102017800D02*
X132423122Y-102041609D01*
X132423122Y-102041609D02*
X132351694Y-102041609D01*
X132946932Y-102017800D02*
X132899313Y-102041609D01*
X132899313Y-102041609D02*
X132804075Y-102041609D01*
X132804075Y-102041609D02*
X132756456Y-102017800D01*
X132756456Y-102017800D02*
X132732646Y-101993990D01*
X132732646Y-101993990D02*
X132708837Y-101946371D01*
X132708837Y-101946371D02*
X132708837Y-101803514D01*
X132708837Y-101803514D02*
X132732646Y-101755895D01*
X132732646Y-101755895D02*
X132756456Y-101732085D01*
X132756456Y-101732085D02*
X132804075Y-101708276D01*
X132804075Y-101708276D02*
X132899313Y-101708276D01*
X132899313Y-101708276D02*
X132946932Y-101732085D01*
X133161217Y-102041609D02*
X133161217Y-101541609D01*
X133375503Y-102041609D02*
X133375503Y-101779704D01*
X133375503Y-101779704D02*
X133351693Y-101732085D01*
X133351693Y-101732085D02*
X133304074Y-101708276D01*
X133304074Y-101708276D02*
X133232646Y-101708276D01*
X133232646Y-101708276D02*
X133185027Y-101732085D01*
X133185027Y-101732085D02*
X133161217Y-101755895D01*
X133804074Y-102017800D02*
X133756455Y-102041609D01*
X133756455Y-102041609D02*
X133661217Y-102041609D01*
X133661217Y-102041609D02*
X133613598Y-102017800D01*
X133613598Y-102017800D02*
X133589789Y-101970180D01*
X133589789Y-101970180D02*
X133589789Y-101779704D01*
X133589789Y-101779704D02*
X133613598Y-101732085D01*
X133613598Y-101732085D02*
X133661217Y-101708276D01*
X133661217Y-101708276D02*
X133756455Y-101708276D01*
X133756455Y-101708276D02*
X133804074Y-101732085D01*
X133804074Y-101732085D02*
X133827884Y-101779704D01*
X133827884Y-101779704D02*
X133827884Y-101827323D01*
X133827884Y-101827323D02*
X133589789Y-101874942D01*
D11*
X125275440Y-100413333D02*
X125299250Y-100437142D01*
X125299250Y-100437142D02*
X125323059Y-100508571D01*
X125323059Y-100508571D02*
X125323059Y-100556190D01*
X125323059Y-100556190D02*
X125299250Y-100627618D01*
X125299250Y-100627618D02*
X125251630Y-100675237D01*
X125251630Y-100675237D02*
X125204011Y-100699047D01*
X125204011Y-100699047D02*
X125108773Y-100722856D01*
X125108773Y-100722856D02*
X125037345Y-100722856D01*
X125037345Y-100722856D02*
X124942107Y-100699047D01*
X124942107Y-100699047D02*
X124894488Y-100675237D01*
X124894488Y-100675237D02*
X124846869Y-100627618D01*
X124846869Y-100627618D02*
X124823059Y-100556190D01*
X124823059Y-100556190D02*
X124823059Y-100508571D01*
X124823059Y-100508571D02*
X124846869Y-100437142D01*
X124846869Y-100437142D02*
X124870678Y-100413333D01*
X124823059Y-100246666D02*
X124823059Y-99913333D01*
X124823059Y-99913333D02*
X125323059Y-100127618D01*
X124640440Y-84665333D02*
X124664250Y-84689142D01*
X124664250Y-84689142D02*
X124688059Y-84760571D01*
X124688059Y-84760571D02*
X124688059Y-84808190D01*
X124688059Y-84808190D02*
X124664250Y-84879618D01*
X124664250Y-84879618D02*
X124616630Y-84927237D01*
X124616630Y-84927237D02*
X124569011Y-84951047D01*
X124569011Y-84951047D02*
X124473773Y-84974856D01*
X124473773Y-84974856D02*
X124402345Y-84974856D01*
X124402345Y-84974856D02*
X124307107Y-84951047D01*
X124307107Y-84951047D02*
X124259488Y-84927237D01*
X124259488Y-84927237D02*
X124211869Y-84879618D01*
X124211869Y-84879618D02*
X124188059Y-84808190D01*
X124188059Y-84808190D02*
X124188059Y-84760571D01*
X124188059Y-84760571D02*
X124211869Y-84689142D01*
X124211869Y-84689142D02*
X124235678Y-84665333D01*
X124188059Y-84498666D02*
X124188059Y-84189142D01*
X124188059Y-84189142D02*
X124378535Y-84355809D01*
X124378535Y-84355809D02*
X124378535Y-84284380D01*
X124378535Y-84284380D02*
X124402345Y-84236761D01*
X124402345Y-84236761D02*
X124426154Y-84212952D01*
X124426154Y-84212952D02*
X124473773Y-84189142D01*
X124473773Y-84189142D02*
X124592821Y-84189142D01*
X124592821Y-84189142D02*
X124640440Y-84212952D01*
X124640440Y-84212952D02*
X124664250Y-84236761D01*
X124664250Y-84236761D02*
X124688059Y-84284380D01*
X124688059Y-84284380D02*
X124688059Y-84427237D01*
X124688059Y-84427237D02*
X124664250Y-84474856D01*
X124664250Y-84474856D02*
X124640440Y-84498666D01*
X133784440Y-90634333D02*
X133808250Y-90658142D01*
X133808250Y-90658142D02*
X133832059Y-90729571D01*
X133832059Y-90729571D02*
X133832059Y-90777190D01*
X133832059Y-90777190D02*
X133808250Y-90848618D01*
X133808250Y-90848618D02*
X133760630Y-90896237D01*
X133760630Y-90896237D02*
X133713011Y-90920047D01*
X133713011Y-90920047D02*
X133617773Y-90943856D01*
X133617773Y-90943856D02*
X133546345Y-90943856D01*
X133546345Y-90943856D02*
X133451107Y-90920047D01*
X133451107Y-90920047D02*
X133403488Y-90896237D01*
X133403488Y-90896237D02*
X133355869Y-90848618D01*
X133355869Y-90848618D02*
X133332059Y-90777190D01*
X133332059Y-90777190D02*
X133332059Y-90729571D01*
X133332059Y-90729571D02*
X133355869Y-90658142D01*
X133355869Y-90658142D02*
X133379678Y-90634333D01*
X133332059Y-90181952D02*
X133332059Y-90420047D01*
X133332059Y-90420047D02*
X133570154Y-90443856D01*
X133570154Y-90443856D02*
X133546345Y-90420047D01*
X133546345Y-90420047D02*
X133522535Y-90372428D01*
X133522535Y-90372428D02*
X133522535Y-90253380D01*
X133522535Y-90253380D02*
X133546345Y-90205761D01*
X133546345Y-90205761D02*
X133570154Y-90181952D01*
X133570154Y-90181952D02*
X133617773Y-90158142D01*
X133617773Y-90158142D02*
X133736821Y-90158142D01*
X133736821Y-90158142D02*
X133784440Y-90181952D01*
X133784440Y-90181952D02*
X133808250Y-90205761D01*
X133808250Y-90205761D02*
X133832059Y-90253380D01*
X133832059Y-90253380D02*
X133832059Y-90372428D01*
X133832059Y-90372428D02*
X133808250Y-90420047D01*
X133808250Y-90420047D02*
X133784440Y-90443856D01*
X130990440Y-90634333D02*
X131014250Y-90658142D01*
X131014250Y-90658142D02*
X131038059Y-90729571D01*
X131038059Y-90729571D02*
X131038059Y-90777190D01*
X131038059Y-90777190D02*
X131014250Y-90848618D01*
X131014250Y-90848618D02*
X130966630Y-90896237D01*
X130966630Y-90896237D02*
X130919011Y-90920047D01*
X130919011Y-90920047D02*
X130823773Y-90943856D01*
X130823773Y-90943856D02*
X130752345Y-90943856D01*
X130752345Y-90943856D02*
X130657107Y-90920047D01*
X130657107Y-90920047D02*
X130609488Y-90896237D01*
X130609488Y-90896237D02*
X130561869Y-90848618D01*
X130561869Y-90848618D02*
X130538059Y-90777190D01*
X130538059Y-90777190D02*
X130538059Y-90729571D01*
X130538059Y-90729571D02*
X130561869Y-90658142D01*
X130561869Y-90658142D02*
X130585678Y-90634333D01*
X130704726Y-90205761D02*
X131038059Y-90205761D01*
X130514250Y-90324809D02*
X130871392Y-90443856D01*
X130871392Y-90443856D02*
X130871392Y-90134333D01*
D12*
X139662819Y-98591333D02*
X140377104Y-98591333D01*
X140377104Y-98591333D02*
X140519961Y-98638952D01*
X140519961Y-98638952D02*
X140615200Y-98734190D01*
X140615200Y-98734190D02*
X140662819Y-98877047D01*
X140662819Y-98877047D02*
X140662819Y-98972285D01*
X139662819Y-98210380D02*
X139662819Y-97591333D01*
X139662819Y-97591333D02*
X140043771Y-97924666D01*
X140043771Y-97924666D02*
X140043771Y-97781809D01*
X140043771Y-97781809D02*
X140091390Y-97686571D01*
X140091390Y-97686571D02*
X140139009Y-97638952D01*
X140139009Y-97638952D02*
X140234247Y-97591333D01*
X140234247Y-97591333D02*
X140472342Y-97591333D01*
X140472342Y-97591333D02*
X140567580Y-97638952D01*
X140567580Y-97638952D02*
X140615200Y-97686571D01*
X140615200Y-97686571D02*
X140662819Y-97781809D01*
X140662819Y-97781809D02*
X140662819Y-98067523D01*
X140662819Y-98067523D02*
X140615200Y-98162761D01*
X140615200Y-98162761D02*
X140567580Y-98210380D01*
X110288667Y-101232700D02*
X110431524Y-101280319D01*
X110431524Y-101280319D02*
X110669619Y-101280319D01*
X110669619Y-101280319D02*
X110764857Y-101232700D01*
X110764857Y-101232700D02*
X110812476Y-101185080D01*
X110812476Y-101185080D02*
X110860095Y-101089842D01*
X110860095Y-101089842D02*
X110860095Y-100994604D01*
X110860095Y-100994604D02*
X110812476Y-100899366D01*
X110812476Y-100899366D02*
X110764857Y-100851747D01*
X110764857Y-100851747D02*
X110669619Y-100804128D01*
X110669619Y-100804128D02*
X110479143Y-100756509D01*
X110479143Y-100756509D02*
X110383905Y-100708890D01*
X110383905Y-100708890D02*
X110336286Y-100661271D01*
X110336286Y-100661271D02*
X110288667Y-100566033D01*
X110288667Y-100566033D02*
X110288667Y-100470795D01*
X110288667Y-100470795D02*
X110336286Y-100375557D01*
X110336286Y-100375557D02*
X110383905Y-100327938D01*
X110383905Y-100327938D02*
X110479143Y-100280319D01*
X110479143Y-100280319D02*
X110717238Y-100280319D01*
X110717238Y-100280319D02*
X110860095Y-100327938D01*
X111193429Y-100280319D02*
X111431524Y-101280319D01*
X111431524Y-101280319D02*
X111622000Y-100566033D01*
X111622000Y-100566033D02*
X111812476Y-101280319D01*
X111812476Y-101280319D02*
X112050572Y-100280319D01*
X112383905Y-100375557D02*
X112431524Y-100327938D01*
X112431524Y-100327938D02*
X112526762Y-100280319D01*
X112526762Y-100280319D02*
X112764857Y-100280319D01*
X112764857Y-100280319D02*
X112860095Y-100327938D01*
X112860095Y-100327938D02*
X112907714Y-100375557D01*
X112907714Y-100375557D02*
X112955333Y-100470795D01*
X112955333Y-100470795D02*
X112955333Y-100566033D01*
X112955333Y-100566033D02*
X112907714Y-100708890D01*
X112907714Y-100708890D02*
X112336286Y-101280319D01*
X112336286Y-101280319D02*
X112955333Y-101280319D01*
D11*
X122862440Y-95333333D02*
X122886250Y-95357142D01*
X122886250Y-95357142D02*
X122910059Y-95428571D01*
X122910059Y-95428571D02*
X122910059Y-95476190D01*
X122910059Y-95476190D02*
X122886250Y-95547618D01*
X122886250Y-95547618D02*
X122838630Y-95595237D01*
X122838630Y-95595237D02*
X122791011Y-95619047D01*
X122791011Y-95619047D02*
X122695773Y-95642856D01*
X122695773Y-95642856D02*
X122624345Y-95642856D01*
X122624345Y-95642856D02*
X122529107Y-95619047D01*
X122529107Y-95619047D02*
X122481488Y-95595237D01*
X122481488Y-95595237D02*
X122433869Y-95547618D01*
X122433869Y-95547618D02*
X122410059Y-95476190D01*
X122410059Y-95476190D02*
X122410059Y-95428571D01*
X122410059Y-95428571D02*
X122433869Y-95357142D01*
X122433869Y-95357142D02*
X122457678Y-95333333D01*
X122624345Y-95047618D02*
X122600535Y-95095237D01*
X122600535Y-95095237D02*
X122576726Y-95119047D01*
X122576726Y-95119047D02*
X122529107Y-95142856D01*
X122529107Y-95142856D02*
X122505297Y-95142856D01*
X122505297Y-95142856D02*
X122457678Y-95119047D01*
X122457678Y-95119047D02*
X122433869Y-95095237D01*
X122433869Y-95095237D02*
X122410059Y-95047618D01*
X122410059Y-95047618D02*
X122410059Y-94952380D01*
X122410059Y-94952380D02*
X122433869Y-94904761D01*
X122433869Y-94904761D02*
X122457678Y-94880952D01*
X122457678Y-94880952D02*
X122505297Y-94857142D01*
X122505297Y-94857142D02*
X122529107Y-94857142D01*
X122529107Y-94857142D02*
X122576726Y-94880952D01*
X122576726Y-94880952D02*
X122600535Y-94904761D01*
X122600535Y-94904761D02*
X122624345Y-94952380D01*
X122624345Y-94952380D02*
X122624345Y-95047618D01*
X122624345Y-95047618D02*
X122648154Y-95095237D01*
X122648154Y-95095237D02*
X122671964Y-95119047D01*
X122671964Y-95119047D02*
X122719583Y-95142856D01*
X122719583Y-95142856D02*
X122814821Y-95142856D01*
X122814821Y-95142856D02*
X122862440Y-95119047D01*
X122862440Y-95119047D02*
X122886250Y-95095237D01*
X122886250Y-95095237D02*
X122910059Y-95047618D01*
X122910059Y-95047618D02*
X122910059Y-94952380D01*
X122910059Y-94952380D02*
X122886250Y-94904761D01*
X122886250Y-94904761D02*
X122862440Y-94880952D01*
X122862440Y-94880952D02*
X122814821Y-94857142D01*
X122814821Y-94857142D02*
X122719583Y-94857142D01*
X122719583Y-94857142D02*
X122671964Y-94880952D01*
X122671964Y-94880952D02*
X122648154Y-94904761D01*
X122648154Y-94904761D02*
X122624345Y-94952380D01*
D12*
X139535819Y-86145333D02*
X140250104Y-86145333D01*
X140250104Y-86145333D02*
X140392961Y-86192952D01*
X140392961Y-86192952D02*
X140488200Y-86288190D01*
X140488200Y-86288190D02*
X140535819Y-86431047D01*
X140535819Y-86431047D02*
X140535819Y-86526285D01*
X139631057Y-85716761D02*
X139583438Y-85669142D01*
X139583438Y-85669142D02*
X139535819Y-85573904D01*
X139535819Y-85573904D02*
X139535819Y-85335809D01*
X139535819Y-85335809D02*
X139583438Y-85240571D01*
X139583438Y-85240571D02*
X139631057Y-85192952D01*
X139631057Y-85192952D02*
X139726295Y-85145333D01*
X139726295Y-85145333D02*
X139821533Y-85145333D01*
X139821533Y-85145333D02*
X139964390Y-85192952D01*
X139964390Y-85192952D02*
X140535819Y-85764380D01*
X140535819Y-85764380D02*
X140535819Y-85145333D01*
D11*
X125402440Y-95333333D02*
X125426250Y-95357142D01*
X125426250Y-95357142D02*
X125450059Y-95428571D01*
X125450059Y-95428571D02*
X125450059Y-95476190D01*
X125450059Y-95476190D02*
X125426250Y-95547618D01*
X125426250Y-95547618D02*
X125378630Y-95595237D01*
X125378630Y-95595237D02*
X125331011Y-95619047D01*
X125331011Y-95619047D02*
X125235773Y-95642856D01*
X125235773Y-95642856D02*
X125164345Y-95642856D01*
X125164345Y-95642856D02*
X125069107Y-95619047D01*
X125069107Y-95619047D02*
X125021488Y-95595237D01*
X125021488Y-95595237D02*
X124973869Y-95547618D01*
X124973869Y-95547618D02*
X124950059Y-95476190D01*
X124950059Y-95476190D02*
X124950059Y-95428571D01*
X124950059Y-95428571D02*
X124973869Y-95357142D01*
X124973869Y-95357142D02*
X124997678Y-95333333D01*
X125450059Y-95095237D02*
X125450059Y-94999999D01*
X125450059Y-94999999D02*
X125426250Y-94952380D01*
X125426250Y-94952380D02*
X125402440Y-94928571D01*
X125402440Y-94928571D02*
X125331011Y-94880952D01*
X125331011Y-94880952D02*
X125235773Y-94857142D01*
X125235773Y-94857142D02*
X125045297Y-94857142D01*
X125045297Y-94857142D02*
X124997678Y-94880952D01*
X124997678Y-94880952D02*
X124973869Y-94904761D01*
X124973869Y-94904761D02*
X124950059Y-94952380D01*
X124950059Y-94952380D02*
X124950059Y-95047618D01*
X124950059Y-95047618D02*
X124973869Y-95095237D01*
X124973869Y-95095237D02*
X124997678Y-95119047D01*
X124997678Y-95119047D02*
X125045297Y-95142856D01*
X125045297Y-95142856D02*
X125164345Y-95142856D01*
X125164345Y-95142856D02*
X125211964Y-95119047D01*
X125211964Y-95119047D02*
X125235773Y-95095237D01*
X125235773Y-95095237D02*
X125259583Y-95047618D01*
X125259583Y-95047618D02*
X125259583Y-94952380D01*
X125259583Y-94952380D02*
X125235773Y-94904761D01*
X125235773Y-94904761D02*
X125211964Y-94880952D01*
X125211964Y-94880952D02*
X125164345Y-94857142D01*
X122735440Y-100413333D02*
X122759250Y-100437142D01*
X122759250Y-100437142D02*
X122783059Y-100508571D01*
X122783059Y-100508571D02*
X122783059Y-100556190D01*
X122783059Y-100556190D02*
X122759250Y-100627618D01*
X122759250Y-100627618D02*
X122711630Y-100675237D01*
X122711630Y-100675237D02*
X122664011Y-100699047D01*
X122664011Y-100699047D02*
X122568773Y-100722856D01*
X122568773Y-100722856D02*
X122497345Y-100722856D01*
X122497345Y-100722856D02*
X122402107Y-100699047D01*
X122402107Y-100699047D02*
X122354488Y-100675237D01*
X122354488Y-100675237D02*
X122306869Y-100627618D01*
X122306869Y-100627618D02*
X122283059Y-100556190D01*
X122283059Y-100556190D02*
X122283059Y-100508571D01*
X122283059Y-100508571D02*
X122306869Y-100437142D01*
X122306869Y-100437142D02*
X122330678Y-100413333D01*
X122283059Y-99984761D02*
X122283059Y-100079999D01*
X122283059Y-100079999D02*
X122306869Y-100127618D01*
X122306869Y-100127618D02*
X122330678Y-100151428D01*
X122330678Y-100151428D02*
X122402107Y-100199047D01*
X122402107Y-100199047D02*
X122497345Y-100222856D01*
X122497345Y-100222856D02*
X122687821Y-100222856D01*
X122687821Y-100222856D02*
X122735440Y-100199047D01*
X122735440Y-100199047D02*
X122759250Y-100175237D01*
X122759250Y-100175237D02*
X122783059Y-100127618D01*
X122783059Y-100127618D02*
X122783059Y-100032380D01*
X122783059Y-100032380D02*
X122759250Y-99984761D01*
X122759250Y-99984761D02*
X122735440Y-99960952D01*
X122735440Y-99960952D02*
X122687821Y-99937142D01*
X122687821Y-99937142D02*
X122568773Y-99937142D01*
X122568773Y-99937142D02*
X122521154Y-99960952D01*
X122521154Y-99960952D02*
X122497345Y-99984761D01*
X122497345Y-99984761D02*
X122473535Y-100032380D01*
X122473535Y-100032380D02*
X122473535Y-100127618D01*
X122473535Y-100127618D02*
X122497345Y-100175237D01*
X122497345Y-100175237D02*
X122521154Y-100199047D01*
X122521154Y-100199047D02*
X122568773Y-100222856D01*
D12*
X130302095Y-98387819D02*
X130302095Y-99197342D01*
X130302095Y-99197342D02*
X130349714Y-99292580D01*
X130349714Y-99292580D02*
X130397333Y-99340200D01*
X130397333Y-99340200D02*
X130492571Y-99387819D01*
X130492571Y-99387819D02*
X130683047Y-99387819D01*
X130683047Y-99387819D02*
X130778285Y-99340200D01*
X130778285Y-99340200D02*
X130825904Y-99292580D01*
X130825904Y-99292580D02*
X130873523Y-99197342D01*
X130873523Y-99197342D02*
X130873523Y-98387819D01*
X131873523Y-99387819D02*
X131302095Y-99387819D01*
X131587809Y-99387819D02*
X131587809Y-98387819D01*
X131587809Y-98387819D02*
X131492571Y-98530676D01*
X131492571Y-98530676D02*
X131397333Y-98625914D01*
X131397333Y-98625914D02*
X131302095Y-98673533D01*
X110426667Y-83719200D02*
X110569524Y-83766819D01*
X110569524Y-83766819D02*
X110807619Y-83766819D01*
X110807619Y-83766819D02*
X110902857Y-83719200D01*
X110902857Y-83719200D02*
X110950476Y-83671580D01*
X110950476Y-83671580D02*
X110998095Y-83576342D01*
X110998095Y-83576342D02*
X110998095Y-83481104D01*
X110998095Y-83481104D02*
X110950476Y-83385866D01*
X110950476Y-83385866D02*
X110902857Y-83338247D01*
X110902857Y-83338247D02*
X110807619Y-83290628D01*
X110807619Y-83290628D02*
X110617143Y-83243009D01*
X110617143Y-83243009D02*
X110521905Y-83195390D01*
X110521905Y-83195390D02*
X110474286Y-83147771D01*
X110474286Y-83147771D02*
X110426667Y-83052533D01*
X110426667Y-83052533D02*
X110426667Y-82957295D01*
X110426667Y-82957295D02*
X110474286Y-82862057D01*
X110474286Y-82862057D02*
X110521905Y-82814438D01*
X110521905Y-82814438D02*
X110617143Y-82766819D01*
X110617143Y-82766819D02*
X110855238Y-82766819D01*
X110855238Y-82766819D02*
X110998095Y-82814438D01*
X111331429Y-82766819D02*
X111569524Y-83766819D01*
X111569524Y-83766819D02*
X111760000Y-83052533D01*
X111760000Y-83052533D02*
X111950476Y-83766819D01*
X111950476Y-83766819D02*
X112188572Y-82766819D01*
X113093333Y-83766819D02*
X112521905Y-83766819D01*
X112807619Y-83766819D02*
X112807619Y-82766819D01*
X112807619Y-82766819D02*
X112712381Y-82909676D01*
X112712381Y-82909676D02*
X112617143Y-83004914D01*
X112617143Y-83004914D02*
X112521905Y-83052533D01*
D11*
X121846440Y-84665333D02*
X121870250Y-84689142D01*
X121870250Y-84689142D02*
X121894059Y-84760571D01*
X121894059Y-84760571D02*
X121894059Y-84808190D01*
X121894059Y-84808190D02*
X121870250Y-84879618D01*
X121870250Y-84879618D02*
X121822630Y-84927237D01*
X121822630Y-84927237D02*
X121775011Y-84951047D01*
X121775011Y-84951047D02*
X121679773Y-84974856D01*
X121679773Y-84974856D02*
X121608345Y-84974856D01*
X121608345Y-84974856D02*
X121513107Y-84951047D01*
X121513107Y-84951047D02*
X121465488Y-84927237D01*
X121465488Y-84927237D02*
X121417869Y-84879618D01*
X121417869Y-84879618D02*
X121394059Y-84808190D01*
X121394059Y-84808190D02*
X121394059Y-84760571D01*
X121394059Y-84760571D02*
X121417869Y-84689142D01*
X121417869Y-84689142D02*
X121441678Y-84665333D01*
X121441678Y-84474856D02*
X121417869Y-84451047D01*
X121417869Y-84451047D02*
X121394059Y-84403428D01*
X121394059Y-84403428D02*
X121394059Y-84284380D01*
X121394059Y-84284380D02*
X121417869Y-84236761D01*
X121417869Y-84236761D02*
X121441678Y-84212952D01*
X121441678Y-84212952D02*
X121489297Y-84189142D01*
X121489297Y-84189142D02*
X121536916Y-84189142D01*
X121536916Y-84189142D02*
X121608345Y-84212952D01*
X121608345Y-84212952D02*
X121894059Y-84498666D01*
X121894059Y-84498666D02*
X121894059Y-84189142D01*
D12*
X113627819Y-92281333D02*
X114342104Y-92281333D01*
X114342104Y-92281333D02*
X114484961Y-92328952D01*
X114484961Y-92328952D02*
X114580200Y-92424190D01*
X114580200Y-92424190D02*
X114627819Y-92567047D01*
X114627819Y-92567047D02*
X114627819Y-92662285D01*
X114627819Y-91281333D02*
X114627819Y-91852761D01*
X114627819Y-91567047D02*
X113627819Y-91567047D01*
X113627819Y-91567047D02*
X113770676Y-91662285D01*
X113770676Y-91662285D02*
X113865914Y-91757523D01*
X113865914Y-91757523D02*
X113913533Y-91852761D01*
X129540095Y-86322819D02*
X129540095Y-87132342D01*
X129540095Y-87132342D02*
X129587714Y-87227580D01*
X129587714Y-87227580D02*
X129635333Y-87275200D01*
X129635333Y-87275200D02*
X129730571Y-87322819D01*
X129730571Y-87322819D02*
X129921047Y-87322819D01*
X129921047Y-87322819D02*
X130016285Y-87275200D01*
X130016285Y-87275200D02*
X130063904Y-87227580D01*
X130063904Y-87227580D02*
X130111523Y-87132342D01*
X130111523Y-87132342D02*
X130111523Y-86322819D01*
X130540095Y-86418057D02*
X130587714Y-86370438D01*
X130587714Y-86370438D02*
X130682952Y-86322819D01*
X130682952Y-86322819D02*
X130921047Y-86322819D01*
X130921047Y-86322819D02*
X131016285Y-86370438D01*
X131016285Y-86370438D02*
X131063904Y-86418057D01*
X131063904Y-86418057D02*
X131111523Y-86513295D01*
X131111523Y-86513295D02*
X131111523Y-86608533D01*
X131111523Y-86608533D02*
X131063904Y-86751390D01*
X131063904Y-86751390D02*
X130492476Y-87322819D01*
X130492476Y-87322819D02*
X131111523Y-87322819D01*
D13*
%TO.C,C7*%
X124185000Y-99618748D02*
X124185000Y-101041252D01*
X126005000Y-99618748D02*
X126005000Y-101041252D01*
%TO.C,C3*%
X123550000Y-85293252D02*
X123550000Y-83870748D01*
X125370000Y-85293252D02*
X125370000Y-83870748D01*
%TO.C,C5*%
X132694000Y-89839748D02*
X132694000Y-91262252D01*
X134514000Y-89839748D02*
X134514000Y-91262252D01*
%TO.C,C4*%
X129900000Y-89839748D02*
X129900000Y-91262252D01*
X131720000Y-89839748D02*
X131720000Y-91262252D01*
%TO.C,J3*%
X136374000Y-93138000D02*
X149114000Y-93138000D01*
X136374000Y-103378000D02*
X136374000Y-93138000D01*
X142494000Y-93778000D02*
X142494000Y-93138000D01*
X142494000Y-98778000D02*
X142494000Y-97738000D01*
X142494000Y-103378000D02*
X142494000Y-102738000D01*
X143942000Y-94408000D02*
X148494000Y-94408000D01*
X144474000Y-99408000D02*
X148494000Y-99408000D01*
X148494000Y-94408000D02*
X148494000Y-97108000D01*
X148494000Y-97108000D02*
X143942000Y-97108000D01*
X148494000Y-99408000D02*
X148494000Y-102108000D01*
X148494000Y-102108000D02*
X144474000Y-102108000D01*
X149114000Y-93138000D02*
X149114000Y-100458000D01*
X149114000Y-101058000D02*
X149114000Y-103378000D01*
X149114000Y-103378000D02*
X136374000Y-103378000D01*
X137994000Y-94008000D02*
G75*
G02*
X137994000Y-97508000I-459259J-1750000D01*
G01*
X137994000Y-97508000D02*
G75*
G02*
X137994000Y-94008000I459259J1750000D01*
G01*
X137994000Y-99008000D02*
G75*
G02*
X137994000Y-102508000I-459259J-1750000D01*
G01*
X137994000Y-102508000D02*
G75*
G02*
X137994000Y-99008000I459259J1750000D01*
G01*
X149724000Y-101198000D02*
X149114000Y-100758000D01*
X149724000Y-100318000D01*
X149724000Y-101198000D01*
G36*
X149724000Y-101198000D02*
G01*
X149114000Y-100758000D01*
X149724000Y-100318000D01*
X149724000Y-101198000D01*
G37*
%TO.C,SW2*%
X105202000Y-100028000D02*
X107062000Y-100028000D01*
X105202000Y-101648000D02*
X105202000Y-100028000D01*
X106822000Y-98488000D02*
X106822000Y-99871000D01*
X106822000Y-98488000D02*
X108205000Y-98488000D01*
X107062000Y-98728000D02*
X107062000Y-102948000D01*
X107062000Y-98728000D02*
X117982000Y-98728000D01*
X107062000Y-100028000D02*
X107062000Y-101648000D01*
X107062000Y-101648000D02*
X105202000Y-101648000D01*
X107062000Y-102948000D02*
X117982000Y-102948000D01*
X117982000Y-98728000D02*
X117982000Y-102948000D01*
%TO.C,C8*%
X121772000Y-95961252D02*
X121772000Y-94538748D01*
X123592000Y-95961252D02*
X123592000Y-94538748D01*
%TO.C,J2*%
X136374000Y-80692000D02*
X149114000Y-80692000D01*
X136374000Y-90932000D02*
X136374000Y-80692000D01*
X142494000Y-81332000D02*
X142494000Y-80692000D01*
X142494000Y-86332000D02*
X142494000Y-85292000D01*
X142494000Y-90932000D02*
X142494000Y-90292000D01*
X143942000Y-81962000D02*
X148494000Y-81962000D01*
X144474000Y-86962000D02*
X148494000Y-86962000D01*
X148494000Y-81962000D02*
X148494000Y-84662000D01*
X148494000Y-84662000D02*
X143942000Y-84662000D01*
X148494000Y-86962000D02*
X148494000Y-89662000D01*
X148494000Y-89662000D02*
X144474000Y-89662000D01*
X149114000Y-80692000D02*
X149114000Y-88012000D01*
X149114000Y-88612000D02*
X149114000Y-90932000D01*
X149114000Y-90932000D02*
X136374000Y-90932000D01*
X137994000Y-81562000D02*
G75*
G02*
X137994000Y-85062000I-459259J-1750000D01*
G01*
X137994000Y-85062000D02*
G75*
G02*
X137994000Y-81562000I459259J1750000D01*
G01*
X137994000Y-86562000D02*
G75*
G02*
X137994000Y-90062000I-459259J-1750000D01*
G01*
X137994000Y-90062000D02*
G75*
G02*
X137994000Y-86562000I459259J1750000D01*
G01*
X149724000Y-88752000D02*
X149114000Y-88312000D01*
X149724000Y-87872000D01*
X149724000Y-88752000D01*
G36*
X149724000Y-88752000D02*
G01*
X149114000Y-88312000D01*
X149724000Y-87872000D01*
X149724000Y-88752000D01*
G37*
%TO.C,C9*%
X124312000Y-95961252D02*
X124312000Y-94538748D01*
X126132000Y-95961252D02*
X126132000Y-94538748D01*
%TO.C,C6*%
X121645000Y-99618748D02*
X121645000Y-101041252D01*
X123465000Y-99618748D02*
X123465000Y-101041252D01*
%TO.C,U1*%
X129214000Y-93110000D02*
X132974000Y-93110000D01*
X129214000Y-99930000D02*
X132974000Y-99930000D01*
X132974000Y-93110000D02*
X132974000Y-94370000D01*
X132974000Y-99930000D02*
X132974000Y-98670000D01*
X127934000Y-93210000D02*
X127694000Y-92880000D01*
X128174000Y-92880000D01*
X127934000Y-93210000D01*
G36*
X127934000Y-93210000D02*
G01*
X127694000Y-92880000D01*
X128174000Y-92880000D01*
X127934000Y-93210000D01*
G37*
%TO.C,SW1*%
X105340000Y-82514500D02*
X107200000Y-82514500D01*
X105340000Y-84134500D02*
X105340000Y-82514500D01*
X106960000Y-80974500D02*
X106960000Y-82357500D01*
X106960000Y-80974500D02*
X108343000Y-80974500D01*
X107200000Y-81214500D02*
X107200000Y-85434500D01*
X107200000Y-81214500D02*
X118120000Y-81214500D01*
X107200000Y-82514500D02*
X107200000Y-84134500D01*
X107200000Y-84134500D02*
X105340000Y-84134500D01*
X107200000Y-85434500D02*
X118120000Y-85434500D01*
X118120000Y-81214500D02*
X118120000Y-85434500D01*
%TO.C,C2*%
X120756000Y-85293252D02*
X120756000Y-83870748D01*
X122576000Y-85293252D02*
X122576000Y-83870748D01*
%TO.C,J1*%
X105268500Y-86828000D02*
X118008500Y-86828000D01*
X105268500Y-89148000D02*
X105268500Y-86828000D01*
X105268500Y-97068000D02*
X105268500Y-89748000D01*
X105888500Y-88098000D02*
X109908500Y-88098000D01*
X105888500Y-90798000D02*
X105888500Y-88098000D01*
X105888500Y-93098000D02*
X110440500Y-93098000D01*
X105888500Y-95798000D02*
X105888500Y-93098000D01*
X109908500Y-90798000D02*
X105888500Y-90798000D01*
X110440500Y-95798000D02*
X105888500Y-95798000D01*
X111888500Y-86828000D02*
X111888500Y-87468000D01*
X111888500Y-91428000D02*
X111888500Y-92468000D01*
X111888500Y-96428000D02*
X111888500Y-97068000D01*
X118008500Y-86828000D02*
X118008500Y-97068000D01*
X118008500Y-97068000D02*
X105268500Y-97068000D01*
X116388500Y-87698000D02*
G75*
G02*
X116388500Y-91198000I-459259J-1750000D01*
G01*
X116388500Y-91198000D02*
G75*
G02*
X116388500Y-87698000I459259J1750000D01*
G01*
X116388500Y-92698000D02*
G75*
G02*
X116388500Y-96198000I-459259J-1750000D01*
G01*
X116388500Y-96198000D02*
G75*
G02*
X116388500Y-92698000I459259J1750000D01*
G01*
X105268500Y-89448000D02*
X104658500Y-89888000D01*
X104658500Y-89008000D01*
X105268500Y-89448000D01*
G36*
X105268500Y-89448000D02*
G01*
X104658500Y-89888000D01*
X104658500Y-89008000D01*
X105268500Y-89448000D01*
G37*
%TO.C,U2*%
X128452000Y-81172000D02*
X132212000Y-81172000D01*
X128452000Y-87992000D02*
X132212000Y-87992000D01*
X132212000Y-81172000D02*
X132212000Y-82432000D01*
X132212000Y-87992000D02*
X132212000Y-86732000D01*
X127172000Y-81272000D02*
X126932000Y-80942000D01*
X127412000Y-80942000D01*
X127172000Y-81272000D01*
G36*
X127172000Y-81272000D02*
G01*
X126932000Y-80942000D01*
X127412000Y-80942000D01*
X127172000Y-81272000D01*
G37*
%TD*%
M02*
